# xmcd
#
# Track frame offsets: 
#        150
#        14734
#        28790
#        42110
#        58947
#        75010
#        94452
#        109720
#        129320
#        140560
#        150470
#        160660
#        174875
#        185509
#        213767
#
# Disc length: 4281 seconds
#
# Revision: 2
# Processed by: cddbd v1.5.2PL0 Copyright (c) Steve Scherf et al.
# Submitted via: ExactAudioCopy v1.1
#
DISCID=ba10b70f
DTITLE=Slawek Wierzcholski - Przejsciowy Stan
DYEAR=2001
DGENRE=Blues Folk
TTITLE0=Bede Cie Mial
TTITLE1=To Jesien, To Jesien
TTITLE2=Gwizdany
TTITLE3=Mlody Pies
TTITLE4=Przejsciowy Stan
TTITLE5=Blues Dla Zmartwionych
TTITLE6=Rok 2000
TTITLE7=Ciezki Dzien
TTITLE8=Przegranych Nikt Nie Lubi
TTITLE9=Nic, Naprawde Nic
TTITLE10=Nadzieja To Ty
TTITLE11=Ostatnia Klotnia
TTITLE12=Sto Kilometrow
TTITLE13=Pierwsza Liga
TTITLE14=Multimedia
EXTD=
EXTT0=
EXTT1=
EXTT2=
EXTT3=
EXTT4=
EXTT5=
EXTT6=
EXTT7=
EXTT8=
EXTT9=
EXTT10=
EXTT11=
EXTT12=
EXTT13=
EXTT14=
PLAYORDER=
